<svg width="200" height="200" viewBox="0 0 200 200" fill="none" xmlns="http://www.w3.org/2000/svg">
<rect width="200" height="200" rx="48" fill="#007C1F"/>
<g filter="url(#filter0_d_4003_644)">
<path d="M110.866 106.75H128.613L135.022 114.756L145.868 127.009L160 144H139.788L129.764 132.4L123.026 122.761L110.866 106.75ZM159.836 95.9677C159.836 105.28 158.014 113.136 154.372 119.535C150.729 125.906 145.813 130.739 139.623 134.034C133.434 137.302 126.532 138.935 118.918 138.935C111.249 138.935 104.32 137.288 98.1303 133.993C91.9679 130.671 87.0655 125.825 83.4228 119.453C79.8076 113.054 78 105.226 78 95.9677C78 86.6553 79.8076 78.8133 83.4228 72.4417C87.0655 66.0428 91.9679 61.2096 98.1303 57.9421C104.32 54.6474 111.249 53 118.918 53C126.532 53 133.434 54.6474 139.623 57.9421C145.813 61.2096 150.729 66.0428 154.372 72.4417C158.014 78.8133 159.836 86.6553 159.836 95.9677ZM136.337 95.9677C136.337 90.9575 135.666 86.737 134.324 83.3061C133.009 79.848 131.051 77.234 128.449 75.4641C125.874 73.667 122.697 72.7684 118.918 72.7684C115.138 72.7684 111.948 73.667 109.346 75.4641C106.771 77.234 104.813 79.848 103.471 83.3061C102.156 86.737 101.499 90.9575 101.499 95.9677C101.499 100.978 102.156 105.212 103.471 108.67C104.813 112.101 106.771 114.715 109.346 116.512C111.948 118.282 115.138 119.167 118.918 119.167C122.697 119.167 125.874 118.282 128.449 116.512C131.051 114.715 133.009 112.101 134.324 108.67C135.666 105.212 136.337 100.978 136.337 95.9677Z" fill="white"/>
<path d="M73.3171 53.1738V139.061H50V53.1738H73.3171Z" fill="white"/>
</g>
<defs>
<filter id="filter0_d_4003_644" x="26" y="33" width="158" height="139" filterUnits="userSpaceOnUse" color-interpolation-filters="sRGB">
<feFlood flood-opacity="0" result="BackgroundImageFix"/>
<feColorMatrix in="SourceAlpha" type="matrix" values="0 0 0 0 0 0 0 0 0 0 0 0 0 0 0 0 0 0 127 0" result="hardAlpha"/>
<feOffset dy="4"/>
<feGaussianBlur stdDeviation="12"/>
<feComposite in2="hardAlpha" operator="out"/>
<feColorMatrix type="matrix" values="0 0 0 0 0.0486719 0 0 0 0 0.444543 0 0 0 0 0.14764 0 0 0 1 0"/>
<feBlend mode="normal" in2="BackgroundImageFix" result="effect1_dropShadow_4003_644"/>
<feBlend mode="normal" in="SourceGraphic" in2="effect1_dropShadow_4003_644" result="shape"/>
</filter>
</defs>
</svg>




